HIERARCHY
ROOT Hips
{
  OFFSET 0 0 0
  CHANNELS 6 Xposition Yposition Zposition Zrotation Yrotation Xrotation
  JOINT LeftThigh
  {
    OFFSET 8.409438 0 -5.917753
    CHANNELS 3 Zrotation Yrotation Xrotation
    JOINT LeftLeg
    {
      OFFSET 0 0 -42.358652
      CHANNELS 3 Zrotation Yrotation Xrotation
      JOINT LeftFoot
      {
        OFFSET 0 0 -39.357303
        CHANNELS 3 Zrotation Yrotation Xrotation
      }
    }
  }
  JOINT RightThigh
  {
    OFFSET -8.409438 0 -5.917753
    CHANNELS 3 Zrotation Yrotation Xrotation
    JOINT RightLeg
    {
      OFFSET 0 0 -42.358652
      CHANNELS 3 Zrotation Yrotation Xrotation
      JOINT RightFoot
      {
        OFFSET 0 0 -39.357303
        CHANNELS 3 Zrotation Yrotation Xrotation
      }
    }
  }
  JOINT SpineLow
  {
    OFFSET 0 0 4.719101
    CHANNELS 3 Zrotation Yrotation Xrotation
    JOINT SpineMid
    {
      OFFSET 0 0 12.899191
      CHANNELS 3 Zrotation Yrotation Xrotation
      JOINT Chest
      {
        OFFSET 0 0 12.899191
        CHANNELS 3 Zrotation Yrotation Xrotation
        JOINT LeftShoulder
        {
          OFFSET 7.550562 1.41573 9.438202
          CHANNELS 3 Zrotation Yrotation Xrotation
          JOINT LeftArm
          {
            OFFSET 9.155056 0 4.247191
            CHANNELS 3 Zrotation Yrotation Xrotation
            JOINT LeftForearm
            {
              OFFSET 0 0 25.771955
              CHANNELS 3 Zrotation Yrotation Xrotation
              JOINT LeftHand
              {
                OFFSET 0 0 25.197169
                CHANNELS 3 Zrotation Yrotation Xrotation
              }
            }
          }
        }
        JOINT RightShoulder
        {
          OFFSET -7.550562 1.41573 9.438202
          CHANNELS 3 Zrotation Yrotation Xrotation
          JOINT RightArm
          {
            OFFSET -9.155056 0 4.247191
            CHANNELS 3 Zrotation Yrotation Xrotation
            JOINT RightForearm
            {
              OFFSET 0 0 -25.771955
              CHANNELS 3 Zrotation Yrotation Xrotation
              JOINT RightHand
              {
                OFFSET 0 0 -25.197169
                CHANNELS 3 Zrotation Yrotation Xrotation
              }
            }
          }
        }
        JOINT Neck
        {
          OFFSET 0 0 15.101124
          CHANNELS 3 Zrotation Yrotation Xrotation
          JOINT Head
          {
            OFFSET 0 0 11.325843
            CHANNELS 3 Zrotation Yrotation Xrotation
            End Site
            {
              OFFSET 0 0 14.157303
            }
          }
        }
      }
    }
  }
}
MOTION
Frames: 13
Frame Time: 0.0
0.0  93.25843  0.0  -12.97284  9.26317  -129.666737  -1.833572  -14.077031  21.631556  -12.432858  -0.574786  11.826937  3.230126  0.678711  4.353186  18.511103  -31.588768  -104.077512  26.2832  31.531505  107.566292  16.033529  9.116138  3.797173  -2.316823  -3.020979  2.837854  -6.70854  -7.96258  8.075525  -6.70854  -7.96258  8.075525  -10.269342  32.360946  15.877677  170.896512  44.45152  -145.450144  -8.387805  5.312652  65.874014  80.801734  -12.100943  -6.072831  -5.825032  -0.595501  25.390613  51.232934  41.564398  25.419107  -22.408449  10.258732  -74.053546  90.593602  -0.07601  -39.391675  -26.572231  16.557736  10.154301  -20.075195  12.010541  8.31887  
0.0  93.25843  0.0  -13.058156  10.200371  -130.115924  -2.016592  -13.933043  21.821552  -12.420985  -0.449425  12.1336  2.756108  0.624292  4.310032  18.475034  -31.720108  -104.300063  26.375993  32.091945  106.997876  16.478203  9.382306  4.108414  -2.521233  -2.943026  3.058043  -7.282653  -7.699505  8.692746  -7.282653  -7.699505  8.692746  -8.793749  32.973095  16.276793  169.810136  44.282125  -147.293836  -8.940888  7.755916  59.993916  81.709902  -11.685295  -4.046096  -6.118243  0.188308  26.488214  47.826832  38.40706  24.667847  -20.570134  10.080534  -71.455697  96.9955  -0.745296  -39.417784  -26.459292  16.058884  9.212853  -19.964295  11.676823  7.592687  
0.0  93.25843  0.0  -12.961728  11.193215  -130.515808  -1.205723  -14.760426  22.219563  -13.67935  0.188543  11.823736  2.29158  0.614523  4.265935  18.228419  -31.899671  -103.820761  26.76394  32.28473  106.902216  16.647053  9.025301  4.17628  -2.79093  -2.86548  3.261706  -8.031592  -7.426451  9.269784  -8.031593  -7.426451  9.269784  -7.382798  33.730175  16.208974  169.2176  43.818508  -148.757113  -6.495626  7.897764  54.56544  80.989986  -12.265287  -2.81201  -5.713939  0.70773  27.281038  43.815802  35.738449  24.110412  -18.377732  10.099664  -68.635885  101.077377  -2.022271  -39.187477  -26.207335  15.727825  8.023717  -19.744163  11.481154  6.684213  
0.0  93.25843  0.0  -12.856568  11.863104  -130.639913  -1.317164  -14.649969  22.001776  -13.791088  0.552937  12.138762  1.972813  0.629253  4.231266  18.087442  -32.275888  -102.838145  26.668857  32.391564  106.572889  16.270702  9.162277  3.933972  -2.886375  -2.80566  3.425093  -8.300393  -7.228787  9.718583  -8.300393  -7.228787  9.718583  -7.362849  33.905408  15.923246  170.107735  42.920838  -148.941791  -3.080538  7.383449  49.931925  79.927728  -13.278079  -1.631063  -5.778613  1.034994  27.709985  39.527236  33.413519  23.905978  -16.005823  8.088993  -65.974714  103.006177  -3.163234  -36.532359  -26.144185  15.292107  7.05229  -19.672299  11.195054  5.938967  
0.0  93.25843  0.0  -12.591755  12.255981  -130.209483  -0.873284  -14.802119  21.256214  -14.429649  1.184665  12.263901  1.90712  0.64356  4.244016  18.20718  -32.526892  -101.674883  25.965533  32.358976  105.899065  15.719861  9.383791  4.013834  -3.024889  -2.685976  3.554221  -8.672128  -6.864912  10.068017  -8.672127  -6.864912  10.068016  -6.928209  33.374848  15.373089  170.129751  41.915332  -149.931125  -0.896472  6.708341  45.542402  79.442323  -13.867813  -0.673896  -5.001376  1.650523  28.391558  36.383571  31.446533  23.629898  -14.457548  6.028386  -64.447053  101.86058  -4.92607  -33.136353  -25.944621  14.831858  5.998788  -19.498104  10.894986  5.127456  
0.0  93.25843  0.0  -12.459441  12.336515  -129.893825  -0.751882  -14.906345  20.471677  -14.76867  1.797368  12.530232  2.021276  0.632855  4.323763  18.116875  -33.150988  -99.791393  25.071014  32.133597  105.188416  15.217947  9.576148  4.098651  -3.33956  -2.557066  3.699151  -9.523517  -6.443946  10.47368  -9.523517  -6.443946  10.473679  -5.244411  33.06435  14.896794  169.5839  41.032481  -151.582424  0.093313  5.729476  41.471701  78.973647  -14.346755  -0.119043  -3.038753  2.181941  29.188857  35.043819  29.633004  24.02814  -14.138151  5.003147  -62.586222  100.093714  -5.121061  -29.722765  -24.694345  14.381439  5.459742  -18.554153  10.587979  4.674647  
0.0  93.25843  0.0  -12.085316  12.264092  -129.37685  -0.450014  -14.867669  19.553849  -15.031899  2.375198  12.726004  2.26448  0.611328  4.430819  17.910129  -33.688961  -97.284551  24.123237  31.895284  104.473013  14.875812  9.806306  4.053978  -3.648524  -2.425852  3.832641  -10.355516  -6.015975  10.84301  -10.355516  -6.015975  10.84301  -3.473581  32.904392  14.306003  168.992056  40.316053  -153.04695  -0.078319  4.772898  37.714372  78.297085  -14.797352  -0.154794  -0.835074  2.32049  29.675956  35.869419  28.256643  25.191799  -15.741872  4.80636  -60.655881  99.743736  -4.581626  -27.349072  -23.371308  14.02864  4.947215  -17.556175  10.351877  4.245532  
0.0  93.25843  0.0  -11.514791  11.83025  -128.569438  0.089515  -14.79534  18.438577  -14.926891  2.837561  12.946516  2.389337  0.552587  4.449721  17.849988  -34.249727  -94.379342  23.171885  31.612271  103.771742  14.5397  9.831149  3.954739  -3.691486  -2.24321  3.992529  -10.451548  -5.486876  11.250697  -10.451547  -5.486876  11.250696  -2.851443  31.909279  13.44565  168.217295  39.961731  -154.10753  -1.774262  4.006117  34.254033  77.812469  -15.201583  -0.224115  0.441232  1.741645  29.497694  37.200311  26.945856  26.123408  -17.727467  5.073467  -58.973439  100.232831  -4.35044  -25.577638  -22.641514  13.194272  4.556517  -17.005829  9.744052  3.905402  
0.0  93.25843  0.0  -10.733153  11.26463  -127.466539  0.809082  -14.507756  17.156237  -14.610504  3.142522  13.094062  2.587742  0.465138  4.51202  17.71965  -34.629944  -91.136117  22.186236  31.190767  103.103864  14.13727  9.793712  3.829302  -3.494806  -2.0719  4.04728  -9.886599  -5.04718  11.356446  -9.886599  -5.04718  11.356446  -3.279607  30.826473  13.041257  167.919117  39.918129  -154.710778  -3.831706  3.489171  31.588974  77.732987  -15.478642  -0.31619  0.467019  1.112808  29.345026  38.225525  25.864007  26.883231  -19.488317  5.194096  -58.289339  100.857645  -4.375749  -24.713139  -22.605755  12.349193  4.374439  -16.978274  9.115973  3.737529  
0.0  93.25843  0.0  -9.878679  10.615792  -126.400608  1.342956  -14.007059  15.928267  -13.90129  3.299808  13.266241  2.667992  0.349999  4.619331  17.221318  -34.994905  -87.241458  21.111036  30.634995  102.441639  13.570492  9.853655  3.644405  -3.14178  -1.927548  4.022826  -8.895062  -4.71967  11.243042  -8.895062  -4.719669  11.243042  -4.483989  29.80725  13.14815  168.309829  40.06488  -154.87787  -5.088908  3.116829  29.785198  77.723153  -15.831676  -0.442772  -0.661802  0.606173  29.32354  38.808025  25.199996  27.646039  -20.441293  4.985914  -58.6488  100.516908  -4.482312  -24.550806  -23.110393  11.616423  4.394204  -17.358128  8.561674  3.7356  
0.0  93.25843  0.0  -8.958089  9.9267  -125.250648  1.855813  -13.337868  14.616057  -13.165459  3.325007  13.389686  2.960727  0.283028  4.718242  16.414337  -35.288804  -82.836871  20.016418  29.955758  101.652288  12.698592  9.961591  3.513809  -2.792238  -1.763535  3.987277  -7.909642  -4.338111  11.100719  -7.909642  -4.338111  11.100719  -5.587374  28.697074  13.317397  169.035688  40.401995  -154.878766  -5.179928  3.067181  29.028137  77.547246  -16.325111  -0.609246  -1.923421  0.129987  29.017473  38.70275  24.900299  28.058678  -20.263424  4.652654  -59.567986  99.732242  -4.547015  -24.101876  -23.600893  10.846802  4.426212  -17.727537  7.979195  3.739971  
0.0  93.25843  0.0  -8.011742  9.15727  -123.943969  2.413933  -12.578462  13.168167  -12.366234  3.221659  13.416875  3.089667  0.202209  4.726343  15.382563  -35.464652  -78.073755  18.96673  29.213108  100.739801  11.510721  10.112333  3.351247  -2.513059  -1.587724  3.939044  -7.114399  -3.91242  10.930589  -7.114398  -3.91242  10.930589  -6.323344  27.654602  13.384756  169.916674  40.712919  -154.882538  -4.635756  3.035062  29.267049  77.314347  -16.659507  -0.602503  -2.947059  -0.259897  28.522042  39.00397  24.875545  28.5358  -19.965699  4.351052  -60.80819  99.112897  -4.540636  -23.198437  -23.878682  10.072848  4.413756  -17.936776  7.396375  3.705958  
0.0  93.25843  0.0  -7.109493  8.311304  -122.569426  3.112372  -11.914127  11.778687  -11.611985  3.0527  13.113304  3.220402  0.112675  4.790583  14.093695  -35.476482  -72.994344  17.993888  28.456613  99.775757  10.168953  10.240594  3.100174  -2.285855  -1.413866  3.872653  -6.461511  -3.483736  10.717583  -6.461511  -3.483736  10.717583  -6.612379  26.688167  13.584349  170.336849  40.948464  -155.114039  -4.111281  2.823607  30.356287  77.358833  -16.999781  -0.678025  -2.896718  -0.835908  28.498899  38.320471  25.189764  28.117001  -19.747536  4.586051  -61.97978  98.564526  -4.514177  -22.214219  -23.934458  9.356614  4.425833  -17.979843  6.857315  3.688312  
